<svg width="1682" height="280" viewBox="0 0 1682 280" fill="none" xmlns="http://www.w3.org/2000/svg">
<path fill-rule="evenodd" clip-rule="evenodd" d="M143.92 247.946C153.771 247.226 163.538 245.548 173.096 242.936C184.891 246.725 197.361 247.582 209.524 245.441C210.005 245.359 210.492 245.32 210.98 245.323C215.32 245.323 221.018 247.976 229.32 253.576V244.365C229.322 242.772 229.726 241.208 230.491 239.833C231.256 238.457 232.355 237.321 233.674 236.54C237.286 234.389 240.646 231.913 243.712 229.186C255.808 218.399 262.64 204.016 262.64 188.778C262.64 183.665 261.87 178.698 260.414 173.953C264.068 166.776 267.022 159.231 269.192 151.406C276.208 162.473 279.968 175.473 280 188.778C280 209.483 270.844 228.789 255.01 242.906C252.367 245.261 249.585 247.437 246.68 249.42V270.951C246.68 278.363 238.56 282.622 232.834 278.216C227.419 273.955 221.813 269.972 216.034 266.279C214.379 265.236 212.658 264.316 210.882 263.523C206.122 264.275 201.25 264.658 196.336 264.658C176.568 264.658 158.312 258.424 143.934 247.946H143.92ZM39.396 204.886C14.42 182.589 0 152.216 0 119.663C0 53.1556 59.612 0 132.398 0C205.198 0 264.81 53.1556 264.81 119.663C264.81 186.185 205.184 239.34 132.398 239.34C124.222 239.34 116.13 238.677 108.206 237.351C104.776 238.205 91.07 246.782 71.316 261.961C64.162 267.473 54.012 262.153 54.012 252.883V216.159C48.8964 212.764 44.0125 208.997 39.396 204.886ZM108.682 214.7C109.284 214.7 109.9 214.744 110.502 214.848C117.642 216.115 124.978 216.763 132.398 216.763C193.886 216.763 243.096 172.877 243.096 119.663C243.096 66.4629 193.886 22.5767 132.398 22.5767C70.938 22.5767 21.7 66.4629 21.7 119.663C21.7 145.393 33.194 169.62 53.522 187.747C58.632 192.286 64.246 196.412 70.266 200.008C73.64 202.012 75.726 205.755 75.726 209.793V230.97C91.35 219.932 101.626 214.7 108.682 214.7ZM75.964 142.254C66.374 142.254 58.604 134.149 58.604 124.187C58.604 114.21 66.374 106.12 75.964 106.12C85.554 106.12 93.324 114.21 93.324 124.187C93.324 134.164 85.554 142.254 75.964 142.254ZM132.398 142.254C122.808 142.254 115.038 134.149 115.038 124.187C115.038 114.21 122.808 106.12 132.398 106.12C141.988 106.12 149.758 114.21 149.758 124.187C149.758 134.164 141.988 142.254 132.398 142.254ZM188.832 142.254C179.242 142.254 171.472 134.149 171.472 124.187C171.472 114.21 179.242 106.12 188.832 106.12C198.422 106.12 206.192 114.21 206.192 124.187C206.192 134.164 198.422 142.254 188.832 142.254Z" fill="white"/>
<path d="M466.559 228V161L472.309 176.5L397.059 53H423.809L487.059 157.25H472.559L536.059 53H560.809L485.809 176.5L491.309 161V228H466.559ZM648.566 228V200L647.316 194.75V147C647.316 136.833 644.316 129 638.316 123.5C632.483 117.833 623.65 115 611.816 115C603.983 115 596.316 116.333 588.816 119C581.316 121.5 574.983 124.917 569.816 129.25L559.816 111.25C566.65 105.75 574.816 101.583 584.316 98.75C593.983 95.75 604.066 94.25 614.566 94.25C632.733 94.25 646.733 98.6667 656.566 107.5C666.4 116.333 671.316 129.833 671.316 148V228H648.566ZM605.066 229.5C595.233 229.5 586.566 227.833 579.066 224.5C571.733 221.167 566.066 216.583 562.066 210.75C558.066 204.75 556.066 198 556.066 190.5C556.066 183.333 557.733 176.833 561.066 171C564.566 165.167 570.15 160.5 577.816 157C585.65 153.5 596.15 151.75 609.316 151.75H651.316V169H610.316C598.316 169 590.233 171 586.066 175C581.9 179 579.816 183.833 579.816 189.5C579.816 196 582.4 201.25 587.566 205.25C592.733 209.083 599.9 211 609.066 211C618.066 211 625.9 209 632.566 205C639.4 201 644.316 195.167 647.316 187.5L652.066 204C648.9 211.833 643.316 218.083 635.316 222.75C627.316 227.25 617.233 229.5 605.066 229.5ZM715.73 228V42.5H739.73V228H715.73ZM785.555 228V42.5H809.555V228H785.555ZM937.629 228V200L936.379 194.75V147C936.379 136.833 933.379 129 927.379 123.5C921.546 117.833 912.712 115 900.879 115C893.046 115 885.379 116.333 877.879 119C870.379 121.5 864.046 124.917 858.879 129.25L848.879 111.25C855.712 105.75 863.879 101.583 873.379 98.75C883.046 95.75 893.129 94.25 903.629 94.25C921.796 94.25 935.796 98.6667 945.629 107.5C955.462 116.333 960.379 129.833 960.379 148V228H937.629ZM894.129 229.5C884.296 229.5 875.629 227.833 868.129 224.5C860.796 221.167 855.129 216.583 851.129 210.75C847.129 204.75 845.129 198 845.129 190.5C845.129 183.333 846.796 176.833 850.129 171C853.629 165.167 859.212 160.5 866.879 157C874.712 153.5 885.212 151.75 898.379 151.75H940.379V169H899.379C887.379 169 879.296 171 875.129 175C870.962 179 868.879 183.833 868.879 189.5C868.879 196 871.462 201.25 876.629 205.25C881.796 209.083 888.962 211 898.129 211C907.129 211 914.962 209 921.629 205C928.462 201 933.379 195.167 936.379 187.5L941.129 204C937.962 211.833 932.379 218.083 924.379 222.75C916.379 227.25 906.296 229.5 894.129 229.5ZM1153.68 230C1140.35 230 1128.01 227.833 1116.68 223.5C1105.51 219 1095.76 212.75 1087.43 204.75C1079.26 196.583 1072.85 187.083 1068.18 176.25C1063.51 165.417 1061.18 153.5 1061.18 140.5C1061.18 127.5 1063.51 115.583 1068.18 104.75C1072.85 93.9167 1079.35 84.5 1087.68 76.5C1096.01 68.3333 1105.76 62.0833 1116.93 57.75C1128.26 53.25 1140.6 51 1153.93 51C1167.43 51 1179.85 53.3333 1191.18 58C1202.68 62.5 1212.43 69.25 1220.43 78.25L1204.18 94C1197.51 87 1190.01 81.8333 1181.68 78.5C1173.35 75 1164.43 73.25 1154.93 73.25C1145.1 73.25 1135.93 74.9167 1127.43 78.25C1119.1 81.5833 1111.85 86.25 1105.68 92.25C1099.51 98.25 1094.68 105.417 1091.18 113.75C1087.85 121.917 1086.18 130.833 1086.18 140.5C1086.18 150.167 1087.85 159.167 1091.18 167.5C1094.68 175.667 1099.51 182.75 1105.68 188.75C1111.85 194.75 1119.1 199.417 1127.43 202.75C1135.93 206.083 1145.1 207.75 1154.93 207.75C1164.43 207.75 1173.35 206.083 1181.68 202.75C1190.01 199.25 1197.51 193.917 1204.18 186.75L1220.43 202.5C1212.43 211.5 1202.68 218.333 1191.18 223C1179.85 227.667 1167.35 230 1153.68 230ZM1323.35 94.25C1334.18 94.25 1343.68 96.3333 1351.85 100.5C1360.18 104.667 1366.68 111 1371.35 119.5C1376.01 128 1378.35 138.75 1378.35 151.75V228H1354.35V154.5C1354.35 141.667 1351.18 132 1344.85 125.5C1338.68 119 1329.93 115.75 1318.6 115.75C1310.1 115.75 1302.68 117.417 1296.35 120.75C1290.01 124.083 1285.1 129 1281.6 135.5C1278.26 142 1276.6 150.083 1276.6 159.75V228H1252.6V42.5H1276.6V131.25L1271.85 121.75C1276.18 113.083 1282.85 106.333 1291.85 101.5C1300.85 96.6667 1311.35 94.25 1323.35 94.25ZM1505.01 228V200L1503.76 194.75V147C1503.76 136.833 1500.76 129 1494.76 123.5C1488.93 117.833 1480.1 115 1468.26 115C1460.43 115 1452.76 116.333 1445.26 119C1437.76 121.5 1431.43 124.917 1426.26 129.25L1416.26 111.25C1423.1 105.75 1431.26 101.583 1440.76 98.75C1450.43 95.75 1460.51 94.25 1471.01 94.25C1489.18 94.25 1503.18 98.6667 1513.01 107.5C1522.85 116.333 1527.76 129.833 1527.76 148V228H1505.01ZM1461.51 229.5C1451.68 229.5 1443.01 227.833 1435.51 224.5C1428.18 221.167 1422.51 216.583 1418.51 210.75C1414.51 204.75 1412.51 198 1412.51 190.5C1412.51 183.333 1414.18 176.833 1417.51 171C1421.01 165.167 1426.6 160.5 1434.26 157C1442.1 153.5 1452.6 151.75 1465.76 151.75H1507.76V169H1466.76C1454.76 169 1446.68 171 1442.51 175C1438.35 179 1436.26 183.833 1436.26 189.5C1436.26 196 1438.85 201.25 1444.01 205.25C1449.18 209.083 1456.35 211 1465.51 211C1474.51 211 1482.35 209 1489.01 205C1495.85 201 1500.76 195.167 1503.76 187.5L1508.51 204C1505.35 211.833 1499.76 218.083 1491.76 222.75C1483.76 227.25 1473.68 229.5 1461.51 229.5ZM1617.68 229.5C1604.34 229.5 1594.01 225.917 1586.68 218.75C1579.34 211.583 1575.68 201.333 1575.68 188V66.5H1599.68V187C1599.68 194.167 1601.43 199.667 1604.93 203.5C1608.59 207.333 1613.76 209.25 1620.43 209.25C1627.93 209.25 1634.18 207.167 1639.18 203L1646.68 220.25C1643.01 223.417 1638.59 225.75 1633.43 227.25C1628.43 228.75 1623.18 229.5 1617.68 229.5ZM1553.18 115.25V95.5H1637.68V115.25H1553.18Z" fill="white"/>
</svg>
