<svg width="1858" height="960" viewBox="0 0 1858 960" fill="none" xmlns="http://www.w3.org/2000/svg">
<g clip-path="url(#clip0_2_3)">
<path fill-rule="evenodd" clip-rule="evenodd" d="M305.9 647.188C318.214 646.332 330.423 644.34 342.37 641.238C357.114 645.737 372.701 646.755 387.905 644.213C388.507 644.115 389.115 644.069 389.725 644.072C395.15 644.072 402.272 647.223 412.65 653.872V642.935C412.652 641.043 413.157 639.185 414.114 637.552C415.07 635.919 416.443 634.57 418.092 633.643C422.608 631.088 426.808 628.147 430.64 624.91C445.76 612.1 454.3 595.02 454.3 576.925C454.3 570.852 453.337 564.955 451.517 559.32C456.085 550.798 459.777 541.838 462.49 532.545C471.26 545.688 475.96 561.125 476 576.925C476 601.512 464.555 624.438 444.763 641.202C441.459 643.999 437.981 646.582 434.35 648.938V674.505C434.35 683.307 424.2 688.365 417.043 683.133C410.274 678.073 403.266 673.342 396.042 668.958C393.974 667.719 391.822 666.626 389.603 665.685C383.652 666.578 377.562 667.033 371.42 667.033C346.71 667.033 323.89 659.63 305.917 647.188H305.9ZM175.245 596.052C144.025 569.575 126 533.508 126 494.85C126 415.872 200.515 352.75 291.497 352.75C382.497 352.75 457.013 415.872 457.013 494.85C457.013 573.845 382.48 636.967 291.497 636.967C281.277 636.967 271.163 636.18 261.258 634.605C256.97 635.62 239.838 645.805 215.145 663.83C206.202 670.375 193.515 664.057 193.515 653.05V609.44C187.121 605.409 181.016 600.935 175.245 596.052ZM261.852 607.708C262.605 607.708 263.375 607.76 264.127 607.883C273.052 609.388 282.223 610.158 291.497 610.158C368.357 610.158 429.87 558.042 429.87 494.85C429.87 431.675 368.357 379.56 291.497 379.56C214.673 379.56 153.125 431.675 153.125 494.85C153.125 525.405 167.493 554.175 192.902 575.7C199.29 581.09 206.308 585.99 213.833 590.26C218.05 592.64 220.658 597.085 220.658 601.88V627.027C240.188 613.92 253.032 607.708 261.852 607.708ZM220.955 521.677C208.967 521.677 199.255 512.053 199.255 500.223C199.255 488.375 208.967 478.768 220.955 478.768C232.942 478.768 242.655 488.375 242.655 500.223C242.655 512.07 232.942 521.677 220.955 521.677ZM291.497 521.677C279.51 521.677 269.798 512.053 269.798 500.223C269.798 488.375 279.51 478.768 291.497 478.768C303.485 478.768 313.198 488.375 313.198 500.223C313.198 512.07 303.485 521.677 291.497 521.677ZM362.04 521.677C350.053 521.677 340.34 512.053 340.34 500.223C340.34 488.375 350.053 478.768 362.04 478.768C374.028 478.768 383.74 488.375 383.74 500.223C383.74 512.07 374.028 521.677 362.04 521.677Z" fill="#09BE8B"/>
<path d="M574.059 607V540L579.809 555.5L504.559 432H531.309L594.559 536.25H580.059L643.559 432H668.309L593.309 555.5L598.809 540V607H574.059ZM756.066 607V579L754.816 573.75V526C754.816 515.833 751.816 508 745.816 502.5C739.983 496.833 731.15 494 719.316 494C711.483 494 703.816 495.333 696.316 498C688.816 500.5 682.483 503.917 677.316 508.25L667.316 490.25C674.15 484.75 682.316 480.583 691.816 477.75C701.483 474.75 711.566 473.25 722.066 473.25C740.233 473.25 754.233 477.667 764.066 486.5C773.9 495.333 778.816 508.833 778.816 527V607H756.066ZM712.566 608.5C702.733 608.5 694.066 606.833 686.566 603.5C679.233 600.167 673.566 595.583 669.566 589.75C665.566 583.75 663.566 577 663.566 569.5C663.566 562.333 665.233 555.833 668.566 550C672.066 544.167 677.65 539.5 685.316 536C693.15 532.5 703.65 530.75 716.816 530.75H758.816V548H717.816C705.816 548 697.733 550 693.566 554C689.4 558 687.316 562.833 687.316 568.5C687.316 575 689.9 580.25 695.066 584.25C700.233 588.083 707.4 590 716.566 590C725.566 590 733.4 588 740.066 584C746.9 580 751.816 574.167 754.816 566.5L759.566 583C756.4 590.833 750.816 597.083 742.816 601.75C734.816 606.25 724.733 608.5 712.566 608.5ZM823.23 607V421.5H847.23V607H823.23ZM893.055 607V421.5H917.055V607H893.055ZM1045.13 607V579L1043.88 573.75V526C1043.88 515.833 1040.88 508 1034.88 502.5C1029.05 496.833 1020.21 494 1008.38 494C1000.55 494 992.879 495.333 985.379 498C977.879 500.5 971.546 503.917 966.379 508.25L956.379 490.25C963.212 484.75 971.379 480.583 980.879 477.75C990.546 474.75 1000.63 473.25 1011.13 473.25C1029.3 473.25 1043.3 477.667 1053.13 486.5C1062.96 495.333 1067.88 508.833 1067.88 527V607H1045.13ZM1001.63 608.5C991.796 608.5 983.129 606.833 975.629 603.5C968.296 600.167 962.629 595.583 958.629 589.75C954.629 583.75 952.629 577 952.629 569.5C952.629 562.333 954.296 555.833 957.629 550C961.129 544.167 966.712 539.5 974.379 536C982.212 532.5 992.712 530.75 1005.88 530.75H1047.88V548H1006.88C994.879 548 986.796 550 982.629 554C978.462 558 976.379 562.833 976.379 568.5C976.379 575 978.962 580.25 984.129 584.25C989.296 588.083 996.462 590 1005.63 590C1014.63 590 1022.46 588 1029.13 584C1035.96 580 1040.88 574.167 1043.88 566.5L1048.63 583C1045.46 590.833 1039.88 597.083 1031.88 601.75C1023.88 606.25 1013.8 608.5 1001.63 608.5ZM1261.18 609C1247.85 609 1235.51 606.833 1224.18 602.5C1213.01 598 1203.26 591.75 1194.93 583.75C1186.76 575.583 1180.35 566.083 1175.68 555.25C1171.01 544.417 1168.68 532.5 1168.68 519.5C1168.68 506.5 1171.01 494.583 1175.68 483.75C1180.35 472.917 1186.85 463.5 1195.18 455.5C1203.51 447.333 1213.26 441.083 1224.43 436.75C1235.76 432.25 1248.1 430 1261.43 430C1274.93 430 1287.35 432.333 1298.68 437C1310.18 441.5 1319.93 448.25 1327.93 457.25L1311.68 473C1305.01 466 1297.51 460.833 1289.18 457.5C1280.85 454 1271.93 452.25 1262.43 452.25C1252.6 452.25 1243.43 453.917 1234.93 457.25C1226.6 460.583 1219.35 465.25 1213.18 471.25C1207.01 477.25 1202.18 484.417 1198.68 492.75C1195.35 500.917 1193.68 509.833 1193.68 519.5C1193.68 529.167 1195.35 538.167 1198.68 546.5C1202.18 554.667 1207.01 561.75 1213.18 567.75C1219.35 573.75 1226.6 578.417 1234.93 581.75C1243.43 585.083 1252.6 586.75 1262.43 586.75C1271.93 586.75 1280.85 585.083 1289.18 581.75C1297.51 578.25 1305.01 572.917 1311.68 565.75L1327.93 581.5C1319.93 590.5 1310.18 597.333 1298.68 602C1287.35 606.667 1274.85 609 1261.18 609ZM1430.85 473.25C1441.68 473.25 1451.18 475.333 1459.35 479.5C1467.68 483.667 1474.18 490 1478.85 498.5C1483.51 507 1485.85 517.75 1485.85 530.75V607H1461.85V533.5C1461.85 520.667 1458.68 511 1452.35 504.5C1446.18 498 1437.43 494.75 1426.1 494.75C1417.6 494.75 1410.18 496.417 1403.85 499.75C1397.51 503.083 1392.6 508 1389.1 514.5C1385.76 521 1384.1 529.083 1384.1 538.75V607H1360.1V421.5H1384.1V510.25L1379.35 500.75C1383.68 492.083 1390.35 485.333 1399.35 480.5C1408.35 475.667 1418.85 473.25 1430.85 473.25ZM1612.51 607V579L1611.26 573.75V526C1611.26 515.833 1608.26 508 1602.26 502.5C1596.43 496.833 1587.6 494 1575.76 494C1567.93 494 1560.26 495.333 1552.76 498C1545.26 500.5 1538.93 503.917 1533.76 508.25L1523.76 490.25C1530.6 484.75 1538.76 480.583 1548.26 477.75C1557.93 474.75 1568.01 473.25 1578.51 473.25C1596.68 473.25 1610.68 477.667 1620.51 486.5C1630.35 495.333 1635.26 508.833 1635.26 527V607H1612.51ZM1569.01 608.5C1559.18 608.5 1550.51 606.833 1543.01 603.5C1535.68 600.167 1530.01 595.583 1526.01 589.75C1522.01 583.75 1520.01 577 1520.01 569.5C1520.01 562.333 1521.68 555.833 1525.01 550C1528.51 544.167 1534.1 539.5 1541.76 536C1549.6 532.5 1560.1 530.75 1573.26 530.75H1615.26V548H1574.26C1562.26 548 1554.18 550 1550.01 554C1545.85 558 1543.76 562.833 1543.76 568.5C1543.76 575 1546.35 580.25 1551.51 584.25C1556.68 588.083 1563.85 590 1573.01 590C1582.01 590 1589.85 588 1596.51 584C1603.35 580 1608.26 574.167 1611.26 566.5L1616.01 583C1612.85 590.833 1607.26 597.083 1599.26 601.75C1591.26 606.25 1581.18 608.5 1569.01 608.5ZM1725.18 608.5C1711.84 608.5 1701.51 604.917 1694.18 597.75C1686.84 590.583 1683.18 580.333 1683.18 567V445.5H1707.18V566C1707.18 573.167 1708.93 578.667 1712.43 582.5C1716.09 586.333 1721.26 588.25 1727.93 588.25C1735.43 588.25 1741.68 586.167 1746.68 582L1754.18 599.25C1750.51 602.417 1746.09 604.75 1740.93 606.25C1735.93 607.75 1730.68 608.5 1725.18 608.5ZM1660.68 494.25V474.5H1745.18V494.25H1660.68Z" fill="white"/>
</g>
<defs>
<clipPath id="clip0_2_3">
<rect width="1858" height="960" fill="white"/>
</clipPath>
</defs>
</svg>
